<svg width="46" height="46" viewBox="0 0 46 46" fill="none" xmlns="http://www.w3.org/2000/svg">
  <g filter="url(#filter0_i_94_404)">
    <path d="M34.5 24.4375H11.5C10.7142 24.4375 10.0625 23.7858 10.0625 23C10.0625 22.2142 10.7142 21.5625 11.5 21.5625H34.5C35.2858 21.5625 35.9375 22.2142 35.9375 23C35.9375 23.7858 35.2858 24.4375 34.5 24.4375Z" fill="#2E69CC" />
    <path d="M23 35.9375C22.2142 35.9375 21.5625 35.2858 21.5625 34.5V11.5C21.5625 10.7142 22.2142 10.0625 23 10.0625C23.7858 10.0625 24.4375 10.7142 24.4375 11.5V34.5C24.4375 35.2858 23.7858 35.9375 23 35.9375Z" fill="#2E69CC" />
  </g>
  <defs>
    <filter id="filter0_i_94_404" x="10.0625" y="10.0625" width="25.875" height="29.875" filterUnits="userSpaceOnUse" color-interpolation-filters="sRGB">
      <feFlood flood-opacity="0" result="BackgroundImageFix" />
      <feBlend mode="normal" in="SourceGraphic" in2="BackgroundImageFix" result="shape" />
      <feColorMatrix in="SourceAlpha" type="matrix" values="0 0 0 0 0 0 0 0 0 0 0 0 0 0 0 0 0 0 127 0" result="hardAlpha" />
      <feOffset dy="4" />
      <feGaussianBlur stdDeviation="2" />
      <feComposite in2="hardAlpha" operator="arithmetic" k2="-1" k3="1" />
      <feColorMatrix type="matrix" values="0 0 0 0 0 0 0 0 0 0 0 0 0 0 0 0 0 0 0.25 0" />
      <feBlend mode="normal" in2="shape" result="effect1_innerShadow_94_404" />
    </filter>
  </defs>
</svg>
