<svg width="48" height="48" viewBox="0 0 48 48" fill="none" xmlns="http://www.w3.org/2000/svg">
  <mask id="mask0_94_433" style="mask-type:alpha" maskUnits="userSpaceOnUse" x="0" y="0" width="48" height="48">
  <rect width="48" height="48" fill="#FFFFFF"/>
  </mask>
  <g mask="url(#mask0_94_433)">
  <path d="M20.65 42L19.85 36.3C19.1166 36.0667 18.3083 35.7 17.425 35.2C16.5416 34.7 15.8 34.1667 15.2 33.6L9.89998 36L6.59998 30.1L11.3 26.6C11.2333 26.2 11.175 25.775 11.125 25.325C11.075 24.875 11.05 24.45 11.05 24.05C11.05 23.65 11.075 23.2333 11.125 22.8C11.175 22.3667 11.2333 21.9 11.3 21.4L6.59998 17.9L9.89998 12.05L15.15 14.4C15.85 13.8333 16.6166 13.3083 17.45 12.825C18.2833 12.3417 19.0666 11.9833 19.8 11.75L20.65 6H27.35L28.15 11.75C28.9833 12.0833 29.775 12.4583 30.525 12.875C31.275 13.2917 32 13.8 32.7 14.4L38.1 12.05L41.4 17.9L36.55 21.45C36.6833 21.9167 36.7666 22.3583 36.8 22.775C36.8333 23.1917 36.85 23.6 36.85 24C36.85 24.3667 36.825 24.7583 36.775 25.175C36.725 25.5917 36.65 26.05 36.55 26.55L41.4 30.1L38.05 36L32.7 33.6C31.9666 34.2 31.225 34.7333 30.475 35.2C29.725 35.6667 28.95 36.0167 28.15 36.25L27.35 42H20.65ZM23.9 28.75C25.2333 28.75 26.3583 28.2917 27.275 27.375C28.1916 26.4583 28.65 25.3333 28.65 24C28.65 22.6667 28.1916 21.5417 27.275 20.625C26.3583 19.7083 25.2333 19.25 23.9 19.25C22.5666 19.25 21.4333 19.7083 20.5 20.625C19.5666 21.5417 19.1 22.6667 19.1 24C19.1 25.3333 19.5666 26.4583 20.5 27.375C21.4333 28.2917 22.5666 28.75 23.9 28.75ZM23.9 27.25C23 27.25 22.2333 26.9333 21.6 26.3C20.9666 25.6667 20.65 24.9 20.65 24C20.65 23.1 20.9666 22.3333 21.6 21.7C22.2333 21.0667 23 20.75 23.9 20.75C24.8 20.75 25.5583 21.0667 26.175 21.7C26.7916 22.3333 27.1 23.1 27.1 24C27.1 24.9 26.7916 25.6667 26.175 26.3C25.5583 26.9333 24.8 27.25 23.9 27.25ZM21.9 40.45H26.05L26.8 34.9C27.8 34.6333 28.7333 34.2583 29.6 33.775C30.4666 33.2917 31.3333 32.6333 32.2 31.8L37.35 34L39.35 30.55L34.8 27.15C34.9333 26.55 35.0333 26 35.1 25.5C35.1666 25 35.2 24.5 35.2 24C35.2 23.4667 35.1666 22.9583 35.1 22.475C35.0333 21.9917 34.9333 21.4667 34.8 20.9L39.4 17.45L37.4 14L32.15 16.2C31.5166 15.5 30.6916 14.8333 29.675 14.2C28.6583 13.5667 27.6833 13.2 26.75 13.1L26.1 7.55H21.9L21.3 13.05C20.2 13.25 19.2166 13.6083 18.35 14.125C17.4833 14.6417 16.6166 15.3167 15.75 16.15L10.6 14L8.59998 17.45L13.1 20.8C12.9666 21.3 12.8583 21.8167 12.775 22.35C12.6916 22.8833 12.65 23.45 12.65 24.05C12.65 24.5833 12.6916 25.1083 12.775 25.625C12.8583 26.1417 12.9666 26.65 13.1 27.15L8.59998 30.55L10.6 34L15.7 31.85C16.5 32.65 17.35 33.3 18.25 33.8C19.15 34.3 20.15 34.6833 21.25 34.95L21.9 40.45Z" fill="#FFFFFF"/>
  </g>
  </svg>
