<svg width="194" height="57" viewBox="0 0 194 57" fill="none" xmlns="http://www.w3.org/2000/svg">
  <rect y="1" width="53" height="51" rx="10" fill="#1877F2" />
  <g clip-path="url(#clip0_46_44)">
    <rect width="24" height="24" transform="translate(15 16)" fill="#1877F2" />
    <path d="M38.5 27.0699C38.5 20.7186 33.3513 15.5699 27 15.5699C20.6487 15.5699 15.5 20.7186 15.5 27.0699C15.5 32.8099 19.7054 37.5674 25.2031 38.4302V30.3941H22.2832V27.0699H25.2031V24.5363C25.2031 21.6541 26.92 20.0621 29.5468 20.0621C30.805 20.0621 32.1211 20.2867 32.1211 20.2867V23.1168H30.671C29.2424 23.1168 28.7969 24.0032 28.7969 24.9127V27.0699H31.9863L31.4765 30.3941H28.7969V38.4302C34.2946 37.5674 38.5 32.8099 38.5 27.0699Z" fill="white" />
  </g>
  <g filter="url(#filter0_dd_46_44)">
    <rect x="72" y="3" width="51" height="49" rx="10" fill="white" />
    <rect width="24" height="24" transform="translate(87 18)" fill="white" />
    <path fill-rule="evenodd" clip-rule="evenodd" d="M108.54 26.7615C108.54 25.946 108.467 25.1619 108.331 24.4092H97.5V28.8576H103.689C103.422 30.2951 102.612 31.513 101.394 32.3285V35.214H105.111C107.285 33.2119 108.54 30.2637 108.54 26.7615Z" fill="#4285F4" />
    <path fill-rule="evenodd" clip-rule="evenodd" d="M97.4999 37.9998C100.605 37.9998 103.208 36.97 105.111 35.2137L101.394 32.3282C100.364 33.0182 99.0472 33.4259 97.4999 33.4259C94.5047 33.4259 91.9695 31.403 91.0651 28.6848H87.2231V31.6644C89.1154 35.4228 93.0045 37.9998 97.4999 37.9998Z" fill="#34A853" />
    <path fill-rule="evenodd" clip-rule="evenodd" d="M91.0652 28.685C90.8352 27.995 90.7045 27.2579 90.7045 26.5C90.7045 25.742 90.8352 25.005 91.0652 24.315V21.3354H87.2232C86.4443 22.8879 86 24.6443 86 26.5C86 28.3557 86.4443 30.112 87.2232 31.6645L91.0652 28.685Z" fill="#FBBC05" />
    <path fill-rule="evenodd" clip-rule="evenodd" d="M97.4999 19.5739C99.1883 19.5739 100.704 20.1541 101.896 21.2936L105.194 17.9952C103.203 16.1395 100.6 15 97.4999 15C93.0045 15 89.1154 17.577 87.2231 21.3355L91.0651 24.315C91.9695 21.5968 94.5047 19.5739 97.4999 19.5739Z" fill="#EA4335" />
  </g>
  <rect x="142" y="3" width="52" height="49" rx="10" fill="black" />
  <rect width="24" height="24" transform="translate(157 15)" fill="black" />
  <path d="M176.967 32.924C176.619 33.7275 176.208 34.4672 175.731 35.1472C175.081 36.0743 174.548 36.716 174.138 37.0724C173.502 37.6573 172.82 37.9568 172.091 37.9739C171.567 37.9739 170.935 37.8248 170.2 37.5224C169.462 37.2214 168.784 37.0724 168.164 37.0724C167.513 37.0724 166.816 37.2214 166.07 37.5224C165.323 37.8248 164.721 37.9824 164.261 37.998C163.561 38.0278 162.864 37.7197 162.168 37.0724C161.723 36.6848 161.168 36.0204 160.502 35.0791C159.787 34.0739 159.2 32.9084 158.74 31.5795C158.247 30.1442 158 28.7543 158 27.4087C158 25.8673 158.333 24.5379 159 23.4238C159.524 22.529 160.222 21.8231 161.095 21.3049C161.968 20.7867 162.911 20.5227 163.927 20.5058C164.483 20.5058 165.212 20.6777 166.117 21.0156C167.021 21.3546 167.601 21.5265 167.855 21.5265C168.045 21.5265 168.689 21.3255 169.781 20.9247C170.814 20.5531 171.686 20.3992 172.4 20.4598C174.335 20.6159 175.789 21.3788 176.756 22.753C175.025 23.8016 174.169 25.2703 174.186 27.1544C174.202 28.622 174.734 29.8432 175.78 30.8129C176.255 31.2629 176.784 31.6107 177.373 31.8578C177.246 32.2283 177.111 32.5832 176.967 32.924ZM172.529 15.4601C172.529 16.6104 172.109 17.6844 171.271 18.6785C170.261 19.8602 169.038 20.5431 167.712 20.4354C167.695 20.2974 167.685 20.1521 167.685 19.9995C167.685 18.8953 168.166 17.7135 169.02 16.7472C169.446 16.258 169.988 15.8512 170.645 15.5267C171.301 15.2071 171.922 15.0303 172.505 15C172.522 15.1538 172.529 15.3076 172.529 15.4601V15.4601Z" fill="white" />
  <defs>
    <filter id="filter0_dd_46_44" x="69" y="0" width="57" height="57" filterUnits="userSpaceOnUse" color-interpolation-filters="sRGB">
      <feFlood flood-opacity="0" result="BackgroundImageFix" />
      <feColorMatrix in="SourceAlpha" type="matrix" values="0 0 0 0 0 0 0 0 0 0 0 0 0 0 0 0 0 0 127 0" result="hardAlpha" />
      <feOffset dy="2" />
      <feGaussianBlur stdDeviation="1.5" />
      <feColorMatrix type="matrix" values="0 0 0 0 0 0 0 0 0 0 0 0 0 0 0 0 0 0 0.168 0" />
      <feBlend mode="normal" in2="BackgroundImageFix" result="effect1_dropShadow_46_44" />
      <feColorMatrix in="SourceAlpha" type="matrix" values="0 0 0 0 0 0 0 0 0 0 0 0 0 0 0 0 0 0 127 0" result="hardAlpha" />
      <feOffset />
      <feGaussianBlur stdDeviation="1.5" />
      <feColorMatrix type="matrix" values="0 0 0 0 0 0 0 0 0 0 0 0 0 0 0 0 0 0 0.084 0" />
      <feBlend mode="normal" in2="effect1_dropShadow_46_44" result="effect2_dropShadow_46_44" />
      <feBlend mode="normal" in="SourceGraphic" in2="effect2_dropShadow_46_44" result="shape" />
    </filter>
    <clipPath id="clip0_46_44">
      <rect width="24" height="24" fill="white" transform="translate(15 16)" />
    </clipPath>
  </defs>
</svg>
