<svg width="48" height="48" viewBox="0 0 48 48" fill="none" xmlns="http://www.w3.org/2000/svg">
  <mask id="mask0_94_417" style="mask-type:alpha" maskUnits="userSpaceOnUse" x="0" y="0" width="48" height="48">
    <rect width="48" height="48" fill="#FFFFFF" />
  </mask>
  <g mask="url(#mask0_94_417)">
    <path d="M12.75 38C11.9833 38 11.3333 37.7334 10.8 37.2001C10.2667 36.6667 10 36.0167 10 35.25V29.9501H11.55V35.25C11.55 35.55 11.675 35.8251 11.925 36.0751C12.175 36.3251 12.45 36.4501 12.75 36.4501H35.25C35.55 36.4501 35.825 36.3251 36.075 36.0751C36.325 35.8251 36.45 35.55 36.45 35.25V29.9501H38V35.25C38 36.0167 37.7333 36.6667 37.2 37.2001C36.6667 37.7334 36.0167 38 35.25 38H12.75ZM23.25 30.6V12.3L18.2 17.3L17.1 16.25L24 9.30005L30.9 16.25L29.8 17.3L24.75 12.3V30.6H23.25Z" fill="#FFFFFF" />
  </g>
</svg>
