<svg width="48" height="48" viewBox="0 0 48 48" fill="none" xmlns="http://www.w3.org/2000/svg">
  <mask id="mask0_94_411" style="mask-type:alpha" maskUnits="userSpaceOnUse" x="0" y="0" width="48" height="48">
    <rect width="48" height="48" fill="#FFFFFF" />
  </mask>
  <g mask="url(#mask0_94_411)">
    <path d="M12.1 35.45C14 34.15 15.8917 33.1333 17.775 32.4C19.6583 31.6667 21.7333 31.3 24 31.3C26.2667 31.3 28.3417 31.6667 30.225 32.4C32.1083 33.1333 34 34.15 35.9 35.45C37.3333 33.8833 38.45 32.1417 39.25 30.225C40.05 28.3083 40.45 26.2333 40.45 24C40.45 19.4 38.8583 15.5083 35.675 12.325C32.4917 9.14167 28.6 7.55 24 7.55C19.4 7.55 15.5083 9.14167 12.325 12.325C9.14167 15.5083 7.55 19.4 7.55 24C7.55 26.2333 7.95 28.3083 8.75 30.225C9.55 32.1417 10.6667 33.8833 12.1 35.45ZM24 24.75C22.3333 24.75 20.925 24.1833 19.775 23.05C18.625 21.9167 18.05 20.5167 18.05 18.85C18.05 17.1833 18.625 15.775 19.775 14.625C20.925 13.475 22.3333 12.9 24 12.9C25.6667 12.9 27.075 13.475 28.225 14.625C29.375 15.775 29.95 17.1833 29.95 18.85C29.95 20.5167 29.375 21.9167 28.225 23.05C27.075 24.1833 25.6667 24.75 24 24.75ZM24 42C21.5 42 19.1583 41.5333 16.975 40.6C14.7917 39.6667 12.8833 38.3833 11.25 36.75C9.61667 35.1167 8.33333 33.2167 7.4 31.05C6.46667 28.8833 6 26.5333 6 24C6 21.5 6.46667 19.1583 7.4 16.975C8.33333 14.7917 9.61667 12.8833 11.25 11.25C12.8833 9.61667 14.7833 8.33333 16.95 7.4C19.1167 6.46667 21.4667 6 24 6C26.5 6 28.8417 6.46667 31.025 7.4C33.2083 8.33333 35.1167 9.61667 36.75 11.25C38.3833 12.8833 39.6667 14.7917 40.6 16.975C41.5333 19.1583 42 21.5 42 24C42 26.5 41.5333 28.8417 40.6 31.025C39.6667 33.2083 38.3833 35.1167 36.75 36.75C35.1167 38.3833 33.2083 39.6667 31.025 40.6C28.8417 41.5333 26.5 42 24 42ZM24 40.45C25.9 40.45 27.775 40.125 29.625 39.475C31.475 38.825 33.15 37.85 34.65 36.55C33.15 35.4167 31.5 34.5167 29.7 33.85C27.9 33.1833 26 32.85 24 32.85C22 32.85 20.0917 33.175 18.275 33.825C16.4583 34.475 14.8167 35.3833 13.35 36.55C14.85 37.85 16.525 38.825 18.375 39.475C20.225 40.125 22.1 40.45 24 40.45ZM24 23.25C25.2667 23.25 26.3167 22.825 27.15 21.975C27.9833 21.125 28.4 20.0833 28.4 18.85C28.4 17.5833 27.9833 16.5333 27.15 15.7C26.3167 14.8667 25.2667 14.45 24 14.45C22.7333 14.45 21.6833 14.8667 20.85 15.7C20.0167 16.5333 19.6 17.5833 19.6 18.85C19.6 20.1167 20.0167 21.1667 20.85 22C21.6833 22.8333 22.7333 23.25 24 23.25Z" fill="white" />
  </g>
</svg>
