<svg width="87" height="15" viewBox="0 0 87 15" fill="none" xmlns="http://www.w3.org/2000/svg">
  <g filter="url(#filter0_i_94_432)">
    <path d="M11.9473 0.78125V15H9.01758L3.30469 5.46875V15H0.375V0.78125H3.30469L9.02734 10.3223V0.78125H11.9473ZM23.5371 12.7148V15H15.9688V12.7148H23.5371ZM16.9258 0.78125V15H13.9961V0.78125H16.9258ZM22.5508 6.57227V8.79883H15.9688V6.57227H22.5508ZM23.5273 0.78125V3.07617H15.9688V0.78125H23.5273ZM28.1738 12.7441L31.0059 0.78125H32.5879L32.9492 2.77344L29.9316 15H28.2324L28.1738 12.7441ZM26.7188 0.78125L29.0625 12.7441L28.8672 15H26.9727L23.8184 0.78125H26.7188ZM35.4395 12.6953L37.7539 0.78125H40.6543L37.5098 15H35.6152L35.4395 12.6953ZM33.4766 0.78125L36.3281 12.793L36.25 15H34.5508L31.5137 2.76367L31.9043 0.78125H33.4766ZM52.0566 0.78125V15H49.1367V0.78125H52.0566ZM56.4316 0.78125V3.07617H44.8301V0.78125H56.4316ZM57.6016 0.78125H62.9043C63.9915 0.78125 64.9258 0.94401 65.707 1.26953C66.4948 1.59505 67.1003 2.07682 67.5234 2.71484C67.9466 3.35286 68.1582 4.13737 68.1582 5.06836C68.1582 5.83008 68.028 6.48438 67.7676 7.03125C67.5137 7.57161 67.1523 8.02409 66.6836 8.38867C66.2214 8.74674 65.6777 9.0332 65.0527 9.24805L64.125 9.73633H59.5156L59.4961 7.45117H62.9238C63.4382 7.45117 63.8646 7.36003 64.2031 7.17773C64.5417 6.99544 64.7956 6.74154 64.9648 6.41602C65.1406 6.09049 65.2285 5.71289 65.2285 5.2832C65.2285 4.82747 65.1439 4.43359 64.9746 4.10156C64.8053 3.76953 64.5482 3.51562 64.2031 3.33984C63.8581 3.16406 63.4251 3.07617 62.9043 3.07617H60.5312V15H57.6016V0.78125ZM65.5508 15L62.3086 8.66211L65.4043 8.64258L68.6855 14.8633V15H65.5508ZM73.0293 0.78125V15H70.1094V0.78125H73.0293ZM80.8105 9.93164H77.1875V7.64648H80.8105C81.3704 7.64648 81.8262 7.55534 82.1777 7.37305C82.5293 7.18424 82.7865 6.92383 82.9492 6.5918C83.112 6.25977 83.1934 5.88542 83.1934 5.46875C83.1934 5.04557 83.112 4.65169 82.9492 4.28711C82.7865 3.92253 82.5293 3.62956 82.1777 3.4082C81.8262 3.18685 81.3704 3.07617 80.8105 3.07617H78.2031V15H75.2734V0.78125H80.8105C81.9238 0.78125 82.8776 0.983073 83.6719 1.38672C84.4727 1.78385 85.0846 2.33398 85.5078 3.03711C85.931 3.74023 86.1426 4.54427 86.1426 5.44922C86.1426 6.36719 85.931 7.16146 85.5078 7.83203C85.0846 8.5026 84.4727 9.02018 83.6719 9.38477C82.8776 9.74935 81.9238 9.93164 80.8105 9.93164Z" fill="#2E69CC" />
  </g>
  <defs>
    <filter id="filter0_i_94_432" x="0.375" y="0.78125" width="85.7676" height="18.2188" filterUnits="userSpaceOnUse" color-interpolation-filters="sRGB">
      <feFlood flood-opacity="0" result="BackgroundImageFix" />
      <feBlend mode="normal" in="SourceGraphic" in2="BackgroundImageFix" result="shape" />
      <feColorMatrix in="SourceAlpha" type="matrix" values="0 0 0 0 0 0 0 0 0 0 0 0 0 0 0 0 0 0 127 0" result="hardAlpha" />
      <feOffset dy="4" />
      <feGaussianBlur stdDeviation="2" />
      <feComposite in2="hardAlpha" operator="arithmetic" k2="-1" k3="1" />
      <feColorMatrix type="matrix" values="0 0 0 0 0 0 0 0 0 0 0 0 0 0 0 0 0 0 0.25 0" />
      <feBlend mode="normal" in2="shape" result="effect1_innerShadow_94_432" />
    </filter>
  </defs>
</svg>
