<svg width="48" height="48" viewBox="0 0 48 48" fill="none" xmlns="http://www.w3.org/2000/svg">
  <path d="M17.3598 25.4399H20.8398V33.5399C20.8398 34.7399 22.3198 35.2999 23.1198 34.3999L31.6398 24.7199C31.8056 24.532 31.9136 24.3001 31.9506 24.0522C31.9877 23.8043 31.9523 23.551 31.8488 23.3228C31.7452 23.0945 31.5779 22.9011 31.367 22.7658C31.156 22.6304 30.9104 22.5589 30.6598 22.5599H27.1798V14.4599C27.1798 13.2599 25.6998 12.6999 24.8998 13.5999L16.3798 23.2799C16.214 23.4679 16.1061 23.6997 16.069 23.9476C16.0319 24.1955 16.0673 24.4488 16.1708 24.677C16.2744 24.9053 16.4417 25.0987 16.6527 25.2341C16.8636 25.3694 17.1092 25.4409 17.3598 25.4399V25.4399Z" stroke="white" stroke-width="1.5" stroke-miterlimit="10" stroke-linecap="round" stroke-linejoin="round" />
  <path d="M23.9399 44C34.9859 44 43.9399 35.046 43.9399 24C43.9399 12.954 34.9859 4 23.9399 4C12.8939 4 3.93994 12.954 3.93994 24C3.93994 35.046 12.8939 44 23.9399 44V44Z" stroke="white" stroke-width="1.5" stroke-miterlimit="10" stroke-linecap="round" stroke-linejoin="round" />
</svg>
